<svg xmlns="http://www.w3.org/2000/svg" viewBox="0 0 90 58"><title>back-to-top</title><polyline points="28.94 29.94 46.13 12.75 63.31 29.94" style="fill:none;stroke:#4e4e4e;stroke-miterlimit:10;stroke-width:1.5px"/><path d="M13.24,43c1.33,0,2.38.61,2.38,2a1.45,1.45,0,0,1-1,1.39A1.73,1.73,0,0,1,15.84,48c0,1.53-1.22,2-2.6,2H10V43Zm-2.1,2.9h2.11c.84,0,1.26-.33,1.26-.88s-.43-1-1.27-1h-2.1Zm0,3.06h2.1c.62,0,1.48-.2,1.48-1s-.83-1.09-1.47-1.09H11.14Z" style="fill:#514d49"/><path d="M22.39,48.53H18.6L17.94,50H16.75l3.14-7h1.22l3.14,7H23.06ZM20.5,44.18,19,47.51h3Z" style="fill:#514d49"/><path d="M31.34,49.1a3.67,3.67,0,0,1-2.63,1A3.43,3.43,0,0,1,25,46.55a3.5,3.5,0,0,1,3.69-3.67,3.58,3.58,0,0,1,2.56,1.06l-.75.72a2.57,2.57,0,0,0-1.81-.72,2.45,2.45,0,0,0-2.58,2.6,2.41,2.41,0,0,0,2.58,2.55,2.71,2.71,0,0,0,1.86-.76Z" style="fill:#514d49"/><path d="M38.34,43l-3.21,3.34,3.49,3.55V50h-1.4L34.1,46.81V50H33V43H34.1v3l2.85-3h1.39Z" style="fill:#514d49"/><path d="M44.12,44h-2.3V43h5.72v1H45.25v6H44.12Z" style="fill:#514d49"/><path d="M55.62,46.53a3.58,3.58,0,1,1-7.16,0,3.5,3.5,0,0,1,3.6-3.67A3.43,3.43,0,0,1,55.62,46.53ZM52,49.12a2.35,2.35,0,0,0,2.47-2.57,2.46,2.46,0,0,0-2.45-2.66,2.62,2.62,0,0,0,0,5.23Z" style="fill:#514d49"/><path d="M61.75,44h-2.3V43h5.72v1H62.88v6H61.75Z" style="fill:#514d49"/><path d="M73.25,46.53a3.58,3.58,0,1,1-7.16,0,3.5,3.5,0,0,1,3.6-3.67A3.43,3.43,0,0,1,73.25,46.53Zm-3.58,2.59a2.35,2.35,0,0,0,2.47-2.57,2.46,2.46,0,0,0-2.45-2.66,2.62,2.62,0,0,0,0,5.23Z" style="fill:#514d49"/><path d="M76.2,47.85V50H75.08V43h3.24a2.43,2.43,0,1,1,0,4.86Zm0-1h2.12a1.4,1.4,0,0,0,0-2.8H76.2Z" style="fill:#514d49"/></svg>